name C:/MyDriveSym/Projects/mobilecap/Data\Session20210820_0001\mocap\ForceDataProcessed\DJ3_forces.mot
datacolumns 28
datarows 11
range 2.02450000 2.02950000
endheader 
time	R_ground_force_vx	R_ground_force_vy	R_ground_force_vz	R_ground_force_px	R_ground_force_py	R_ground_force_pz	R_ground_torque_x	R_ground_torque_y	R_ground_torque_z	L_ground_force_vx	L_ground_force_vy	L_ground_force_vz	L_ground_force_px	L_ground_force_py	L_ground_force_pz	L_ground_torque_x	L_ground_torque_y	L_ground_torque_z	3_ground_force_vx	3_ground_force_vy	3_ground_force_vz	3_ground_force_px	3_ground_force_py	3_ground_force_pz	3_ground_torque_x	3_ground_torque_y	3_ground_torque_z	
          2.02450000	        -83.14389700	        738.42376300	         -4.95197800	         -0.13416000	          0.00600000	         -0.44660900	          0.00000000	         -2.27961400	          0.00000000	        -95.01035200	        728.29994000	         38.39217600	         -0.14241300	          0.00600000	         -0.70877200	          0.00000000	          3.84942500	          0.00000000	          0.00000000	          0.00000000	          0.00000000	          0.00000000	          0.00000000	          0.00000000	          0.00000000	          0.00000000	          0.00000000	
          2.02500000	        -81.07422700	        729.24861000	         -3.98883600	         -0.13388200	          0.00600000	         -0.44660200	          0.00000000	         -2.27404100	          0.00000000	        -93.64152100	        721.08729000	         37.09187200	         -0.14210000	          0.00600000	         -0.70874400	          0.00000000	          3.83690600	          0.00000000	          0.00000000	          0.00000000	          0.00000000	          0.00000000	          0.00000000	          0.00000000	          0.00000000	          0.00000000	          0.00000000	
          2.02550000	        -78.96037900	        719.97218000	         -3.02858600	         -0.13360500	          0.00600000	         -0.44659400	          0.00000000	         -2.26960400	          0.00000000	        -92.23278900	        713.78877400	         35.78746500	         -0.14178500	          0.00600000	         -0.70871600	          0.00000000	          3.82521200	          0.00000000	          0.00000000	          0.00000000	          0.00000000	          0.00000000	          0.00000000	          0.00000000	          0.00000000	          0.00000000	          0.00000000	
          2.02600000	        -76.80278300	        710.59575200	         -2.07143300	         -0.13332800	          0.00600000	         -0.44658400	          0.00000000	         -2.26632200	          0.00000000	        -90.78348400	        706.40497500	         34.47928500	         -0.14146800	          0.00600000	         -0.70868900	          0.00000000	          3.81435800	          0.00000000	          0.00000000	          0.00000000	          0.00000000	          0.00000000	          0.00000000	          0.00000000	          0.00000000	          0.00000000	          0.00000000	
          2.02650000	        -74.60188000	        701.12053800	         -1.11755700	         -0.13305300	          0.00600000	         -0.44657300	          0.00000000	         -2.26421000	          0.00000000	        -89.29288400	        698.93633400	         33.16765700	         -0.14115000	          0.00600000	         -0.70866200	          0.00000000	          3.80436100	          0.00000000	          0.00000000	          0.00000000	          0.00000000	          0.00000000	          0.00000000	          0.00000000	          0.00000000	          0.00000000	          0.00000000	
          2.02700000	        -72.35813100	        691.54766900	         -0.16711100	         -0.13277900	          0.00600000	         -0.44656000	          0.00000000	         -2.26328100	          0.00000000	        -87.76022700	        691.38312900	         31.85291400	         -0.14083200	          0.00600000	         -0.70863400	          0.00000000	          3.79523900	          0.00000000	          0.00000000	          0.00000000	          0.00000000	          0.00000000	          0.00000000	          0.00000000	          0.00000000	          0.00000000	          0.00000000	
          2.02750000	        -70.07202500	        681.87820700	          0.77976500	         -0.13250700	          0.00600000	         -0.44654500	          0.00000000	         -2.26353500	          0.00000000	        -86.18471700	        683.74546000	         30.53540700	         -0.14051200	          0.00600000	         -0.70860800	          0.00000000	          3.78700400	          0.00000000	          0.00000000	          0.00000000	          0.00000000	          0.00000000	          0.00000000	          0.00000000	          0.00000000	          0.00000000	          0.00000000	
          2.02800000	        -67.74409900	        672.11312800	          1.72292800	         -0.13223700	          0.00600000	         -0.44653000	          0.00000000	         -2.26496200	          0.00000000	        -84.56551800	        676.02324100	         29.21551500	         -0.14019300	          0.00600000	         -0.70858100	          0.00000000	          3.77966500	          0.00000000	          0.00000000	          0.00000000	          0.00000000	          0.00000000	          0.00000000	          0.00000000	          0.00000000	          0.00000000	          0.00000000	
          2.02850000	        -65.37493200	        662.25328700	          2.66223900	         -0.13196900	          0.00600000	         -0.44651200	          0.00000000	         -2.26753500	          0.00000000	        -82.90175400	        668.21618500	         27.89364100	         -0.13987300	          0.00600000	         -0.70855400	          0.00000000	          3.77322700	          0.00000000	          0.00000000	          0.00000000	          0.00000000	          0.00000000	          0.00000000	          0.00000000	          0.00000000	          0.00000000	          0.00000000	
          2.02900000	        -62.96514400	        652.29941200	          3.59756600	         -0.13170300	          0.00600000	         -0.44649400	          0.00000000	         -2.27121700	          0.00000000	        -81.19251200	        660.32379200	         26.57020000	         -0.13955400	          0.00600000	         -0.70852800	          0.00000000	          3.76768600	          0.00000000	          0.00000000	          0.00000000	          0.00000000	          0.00000000	          0.00000000	          0.00000000	          0.00000000	          0.00000000	          0.00000000	
          2.02950000	        -60.51538500	        642.25212200	          4.52879000	         -0.13144000	          0.00600000	         -0.44647500	          0.00000000	         -2.27596000	          0.00000000	        -79.43684500	        652.34534900	         25.24558800	         -0.13923500	          0.00600000	         -0.70850200	          0.00000000	          3.76303500	          0.00000000	          0.00000000	          0.00000000	          0.00000000	          0.00000000	          0.00000000	          0.00000000	          0.00000000	          0.00000000	          0.00000000	
